<svg width="72" height="72" viewBox="0 0 56 56" fill="none" xmlns="http://www.w3.org/2000/svg">
<path d="M44.8 46.6668C40.5969 46.6668 36.3829 45.6993 32.158 43.7642C27.9331 41.8291 24.0403 39.0812 20.4797 35.5205C16.9486 31.9598 14.2084 28.0546 12.2593 23.8048C10.3087 19.5535 9.33333 15.3519 9.33333 11.2002V9.3335H19.691L21.6697 18.8605L15.379 24.7172C16.443 26.5621 17.5451 28.2475 18.6853 29.7735C19.8256 31.2995 21.0132 32.6754 22.2483 33.9012C23.4959 35.2078 24.9021 36.4289 26.467 37.5645C28.0319 38.7001 29.8177 39.82 31.8243 40.9245L37.9167 34.6058L46.6667 36.3698V46.6668H44.8ZM38.5 26.7448C38.0178 26.7448 37.5978 26.5659 37.24 26.2082C36.8822 25.8504 36.7033 25.4304 36.7033 24.9482C36.7033 24.4659 36.8822 24.0467 37.24 23.6905C37.5978 23.3343 38.0178 23.1554 38.5 23.1538C38.9822 23.1523 39.4022 23.3312 39.76 23.6905C40.1178 24.0498 40.2967 24.4698 40.2967 24.9505C40.2967 25.4312 40.1178 25.8504 39.76 26.2082C39.4022 26.5659 38.9822 26.7448 38.5 26.7448ZM32.6667 20.5778L31.2947 19.1148C32.3322 18.2562 33.4631 17.5779 34.6873 17.0802C35.9116 16.5824 37.1824 16.3335 38.5 16.3335C39.8175 16.3335 41.0884 16.5824 42.3127 17.0802C43.5369 17.5779 44.6678 18.2562 45.7053 19.1148L44.3333 20.5802C43.4964 19.8926 42.5818 19.3575 41.5893 18.9748C40.5969 18.5922 39.5671 18.3993 38.5 18.3962C37.4329 18.3931 36.4031 18.5852 35.4107 18.9725C34.4182 19.3598 33.5035 19.8949 32.6667 20.5778ZM27.7667 15.5612L26.3037 14.0982C27.965 12.5582 29.8433 11.3791 31.9387 10.5608C34.034 9.74261 36.2211 9.3335 38.5 9.3335C40.7789 9.3335 42.9668 9.74261 45.0637 10.5608C47.1605 11.3791 49.0381 12.5582 50.6963 14.0982L49.2333 15.5612C47.7649 14.2125 46.1067 13.1812 44.2587 12.4672C42.4107 11.7532 40.4911 11.3969 38.5 11.3985C36.5089 11.4001 34.5909 11.7586 32.746 12.4742C30.9042 13.1928 29.2444 14.2203 27.7667 15.5612Z" fill="black"/>
</svg>
