<svg width="72" height="72" viewBox="0 0 72 72" fill="none" xmlns="http://www.w3.org/2000/svg">
<path d="M16.848 63.0001C15.466 63.0001 14.313 62.5382 13.389 61.6142C12.465 60.6901 12.002 59.5371 12 58.1552V19.8451C12 18.4651 12.463 17.3131 13.389 16.3891C14.315 15.4651 15.468 15.0021 16.848 15.0001H22.155V9.92415C22.155 9.45815 22.308 9.07215 22.614 8.76615C22.92 8.46015 23.305 8.30715 23.769 8.30715C24.233 8.30715 24.619 8.46015 24.927 8.76615C25.235 9.07215 25.388 9.45815 25.386 9.92415V15.0001H46.848V9.81015C46.848 9.38215 46.991 9.02415 47.277 8.73615C47.563 8.44815 47.92 8.30515 48.348 8.30715C48.776 8.30915 49.132 8.45215 49.416 8.73615C49.7 9.02015 49.844 9.37715 49.848 9.80715V15.0001H55.155C56.535 15.0001 57.688 15.4631 58.614 16.3891C59.54 17.3151 60.002 18.4682 60 19.8482V58.1552C60 59.5351 59.538 60.6881 58.614 61.6142C57.69 62.5401 56.536 63.0021 55.152 63.0001H16.848ZM16.848 60.0001H55.155C55.615 60.0001 56.038 59.8082 56.424 59.4241C56.81 59.0401 57.002 58.6161 57 58.1522V31.8481H15V58.1552C15 58.6152 15.192 59.0382 15.576 59.4241C15.96 59.8102 16.383 60.0021 16.845 60.0001M36 42.4622C35.38 42.4622 34.84 42.2321 34.38 41.7721C33.92 41.3121 33.69 40.7721 33.69 40.1521C33.69 39.5321 33.92 38.9931 34.38 38.5351C34.84 38.0772 35.38 37.8471 36 37.8451C36.62 37.8431 37.16 38.0731 37.62 38.5351C38.08 38.9972 38.31 39.5371 38.31 40.1551C38.31 40.7731 38.08 41.3121 37.62 41.7721C37.16 42.2321 36.62 42.4622 36 42.4622ZM24 42.4622C23.38 42.4622 22.84 42.2321 22.38 41.7721C21.92 41.3121 21.69 40.7721 21.69 40.1521C21.69 39.5321 21.92 38.9931 22.38 38.5351C22.84 38.0772 23.38 37.8471 24 37.8451C24.62 37.8431 25.16 38.0731 25.62 38.5351C26.08 38.9972 26.31 39.5371 26.31 40.1551C26.31 40.7731 26.08 41.3121 25.62 41.7721C25.16 42.2321 24.62 42.4622 24 42.4622ZM48 42.4622C47.38 42.4622 46.84 42.2321 46.38 41.7721C45.92 41.3121 45.69 40.7721 45.69 40.1521C45.69 39.5321 45.92 38.9931 46.38 38.5351C46.84 38.0772 47.38 37.8471 48 37.8451C48.62 37.8431 49.16 38.0731 49.62 38.5351C50.08 38.9972 50.31 39.5371 50.31 40.1551C50.31 40.7731 50.08 41.3121 49.62 41.7721C49.16 42.2321 48.62 42.4622 48 42.4622ZM36 54.0001C35.38 54.0001 34.84 53.7701 34.38 53.3102C33.92 52.8502 33.69 52.3101 33.69 51.6901C33.69 51.0701 33.92 50.5311 34.38 50.0732C34.84 49.6152 35.38 49.3852 36 49.3831C36.62 49.3811 37.16 49.6111 37.62 50.0732C38.08 50.5351 38.31 51.0752 38.31 51.6932C38.31 52.3111 38.08 52.8511 37.62 53.3131C37.16 53.7752 36.62 54.0042 36 54.0001ZM24 54.0001C23.38 54.0001 22.84 53.7701 22.38 53.3102C21.92 52.8502 21.69 52.3101 21.69 51.6901C21.69 51.0701 21.92 50.5311 22.38 50.0732C22.84 49.6152 23.38 49.3852 24 49.3831C24.62 49.3811 25.16 49.6111 25.62 50.0732C26.08 50.5351 26.31 51.0752 26.31 51.6932C26.31 52.3111 26.08 52.8511 25.62 53.3131C25.16 53.7752 24.62 54.0042 24 54.0001ZM48 54.0001C47.38 54.0001 46.84 53.7701 46.38 53.3102C45.92 52.8502 45.69 52.3101 45.69 51.6901C45.69 51.0701 45.92 50.5311 46.38 50.0732C46.84 49.6152 47.38 49.3852 48 49.3831C48.62 49.3811 49.16 49.6111 49.62 50.0732C50.08 50.5351 50.31 51.0752 50.31 51.6932C50.31 52.3111 50.08 52.8511 49.62 53.3131C49.16 53.7752 48.62 54.0042 48 54.0001Z" fill="black"/>
</svg>
