<svg width="492" height="342" viewBox="0 0 492 342" fill="none" xmlns="http://www.w3.org/2000/svg">
<g clip-path="url(#clip0_111_1011)">
<rect width="492" height="342" fill="white"/>
<path d="M259.666 117.837C233.634 117.837 212.375 96.4616 212.375 70.0443C212.375 43.6269 233.526 22.252 259.666 22.252C285.806 22.252 306.957 43.6269 306.957 70.0443C306.957 96.4616 285.806 117.837 259.666 117.837ZM259.666 23.3481C234.177 23.3481 213.46 44.2846 213.46 70.0443C213.46 95.8039 234.177 116.74 259.666 116.74C285.155 116.74 305.872 95.8039 305.872 70.0443C305.872 44.2846 285.155 23.3481 259.666 23.3481Z" fill="#C5DBFC"/>
<path d="M259.666 101.614C242.42 101.614 228.428 87.4737 228.428 70.0448C228.428 52.616 242.42 38.4756 259.666 38.4756C276.912 38.4756 290.904 52.616 290.904 70.0448C290.904 87.4737 276.912 101.614 259.666 101.614ZM259.666 40.4487C243.504 40.4487 230.38 53.7121 230.38 70.0448C230.38 86.3775 243.504 99.641 259.666 99.641C275.827 99.641 288.952 86.3775 288.952 70.0448C289.06 53.7121 275.827 40.4487 259.666 40.4487Z" fill="#C5DBFC"/>
<path d="M259.665 15.5654C229.946 15.5654 205.758 40.0097 205.758 70.0443H208.795C208.795 41.6539 231.681 18.6347 259.665 18.6347C287.758 18.6347 310.536 41.7635 310.536 70.0443H313.573C313.681 40.0097 289.493 15.5654 259.665 15.5654Z" fill="#C5DBFC"/>
<path d="M259.665 124.523C229.946 124.523 205.758 100.079 205.758 70.0439H208.795C208.795 98.4343 231.681 121.454 259.665 121.454V124.523Z" fill="#C5DBFC"/>
<path d="M259.666 46.5859C246.867 46.5859 236.562 57.109 236.562 69.934C236.562 82.759 246.975 93.2821 259.666 93.2821C272.465 93.2821 282.769 82.759 282.769 69.934C282.769 57.109 272.465 46.5859 259.666 46.5859Z" fill="#C5DBFC"/>
<path d="M223.111 68.2916C223.545 59.9608 226.582 52.2877 231.572 46.2589L227.125 41.7646C220.942 48.9993 217.146 58.207 216.712 68.2916H223.111Z" fill="#C5DBFC"/>
<path d="M235.26 42.5317C241.117 37.1605 248.709 33.7624 257.061 33.2144V26.7471C246.974 27.4048 237.754 31.4605 230.812 38.0375L235.26 42.5317Z" fill="#C5DBFC"/>
<path d="M296.218 73.553C295.458 81.6645 292.096 89.0087 286.998 94.7087L291.445 99.203C297.736 92.2972 301.749 83.3087 302.509 73.4434H296.218V73.553Z" fill="#C5DBFC"/>
<path d="M283.201 98.3262C277.453 103.149 270.186 106.328 262.268 106.876V113.343C271.921 112.795 280.815 108.959 287.649 102.93L283.201 98.3262Z" fill="#C5DBFC"/>
<path d="M267.258 126.496L266.173 118.494C266.607 118.385 267.149 118.385 267.583 118.275L268.884 126.167C268.342 126.277 267.8 126.387 267.258 126.496ZM272.355 125.619L270.511 117.727C270.945 117.617 271.488 117.508 271.922 117.398L273.982 125.181C273.44 125.291 272.898 125.4 272.355 125.619ZM277.236 124.194L274.742 116.521C275.175 116.412 275.718 116.192 276.152 116.083L278.863 123.646C278.321 123.756 277.779 123.975 277.236 124.194ZM282.117 122.331L278.972 114.987C279.406 114.767 279.84 114.548 280.273 114.329L283.636 121.564C283.094 121.892 282.551 122.112 282.117 122.331ZM286.673 120.029L282.877 113.014C283.31 112.794 283.744 112.575 284.178 112.246L288.191 119.152C287.649 119.481 287.215 119.81 286.673 120.029ZM291.12 117.398L286.673 110.712C287.107 110.383 287.541 110.164 287.866 109.835L292.53 116.412C291.988 116.741 291.554 117.069 291.12 117.398ZM295.242 114.329L290.252 108.081C290.686 107.752 291.012 107.423 291.337 107.094L296.543 113.123C296.109 113.562 295.676 113.891 295.242 114.329ZM299.038 110.821L293.506 105.121C293.832 104.792 294.157 104.464 294.591 104.025L300.34 109.616C299.797 110.054 299.472 110.383 299.038 110.821ZM302.509 107.094L296.435 101.833C296.76 101.504 297.086 101.066 297.411 100.737L303.594 105.779C303.268 106.218 302.943 106.656 302.509 107.094ZM305.654 102.929L299.146 98.3252C299.472 97.8867 299.689 97.5579 300.014 97.1194L306.631 101.614C306.305 102.052 305.98 102.491 305.654 102.929ZM308.474 98.654L301.641 94.5983C301.858 94.1598 302.075 93.7213 302.4 93.2829L309.342 97.1194C309.017 97.6675 308.691 98.106 308.474 98.654ZM310.861 94.0502L303.702 90.6521C303.919 90.2137 304.136 89.7752 304.353 89.3367L311.62 92.5156C311.295 92.954 311.078 93.5021 310.861 94.0502ZM312.813 89.2271L305.329 86.4867C305.546 86.0483 305.654 85.5002 305.763 85.0617L313.355 87.5829C313.138 88.131 313.03 88.679 312.813 89.2271ZM314.332 84.2944L306.631 82.3213C306.739 81.8829 306.847 81.3348 306.956 80.8963L314.657 82.6502C314.549 83.1983 314.44 83.7463 314.332 84.2944ZM315.308 79.2521L307.498 77.9367C307.607 77.4983 307.607 76.9502 307.715 76.5117L315.633 77.4983C315.525 78.0463 315.416 78.704 315.308 79.2521Z" fill="#C5DBFC"/>
<path d="M217.365 75.8542L223.331 75.0869C223.331 75.4158 223.439 75.8542 223.548 76.1831L217.582 77.1696C217.474 76.6215 217.474 76.2927 217.365 75.8542ZM218.016 79.6908L223.873 78.3754C223.982 78.7042 224.09 79.1427 224.09 79.4715L218.233 81.0061C218.233 80.5677 218.125 80.1292 218.016 79.6908ZM219.101 83.4177L224.849 81.5542C224.958 81.8831 225.066 82.2119 225.175 82.6504L219.535 84.7331C219.426 84.2946 219.209 83.8561 219.101 83.4177ZM220.511 87.1446L226.042 84.7331C226.151 85.0619 226.368 85.3908 226.476 85.7196L221.053 88.3504C220.836 87.9119 220.619 87.5831 220.511 87.1446ZM222.246 90.6523L227.561 87.6927C227.778 88.0215 227.886 88.3504 228.103 88.6792L222.897 91.7484C222.572 91.4196 222.463 91.0908 222.246 90.6523ZM224.199 94.0504L229.188 90.6523C229.405 90.9811 229.622 91.31 229.839 91.5292L224.958 95.0369C224.741 94.7081 224.416 94.3792 224.199 94.0504ZM226.585 97.2292L231.249 93.3927C231.466 93.7215 231.683 93.9408 232.008 94.2696L227.453 98.2157C227.127 97.8869 226.802 97.5581 226.585 97.2292ZM229.08 100.079L233.418 95.8042C233.635 96.0234 233.96 96.3523 234.177 96.5715L230.056 100.956C229.73 100.737 229.405 100.408 229.08 100.079ZM231.9 102.82L235.804 98.2157C236.13 98.435 236.347 98.6542 236.672 98.9831L232.876 103.697C232.55 103.368 232.225 103.148 231.9 102.82ZM235.045 105.231L238.516 100.298C238.841 100.518 239.167 100.737 239.384 100.956L236.021 105.998C235.696 105.779 235.371 105.45 235.045 105.231ZM238.299 107.314L241.336 102.052C241.662 102.272 241.987 102.381 242.312 102.6L239.492 107.972C239.058 107.752 238.624 107.533 238.299 107.314ZM241.662 109.177L244.156 103.697C244.482 103.806 244.807 104.025 245.132 104.135L242.746 109.725C242.529 109.506 242.095 109.397 241.662 109.177ZM245.241 110.712L247.302 105.012C247.627 105.122 247.953 105.231 248.386 105.341L246.542 111.15C246.109 110.931 245.675 110.822 245.241 110.712ZM249.037 111.808L250.556 105.889C250.881 105.998 251.315 106.108 251.64 106.108L250.339 112.027C249.796 112.027 249.471 111.918 249.037 111.808ZM252.834 112.685L253.81 106.656C254.135 106.766 254.569 106.766 254.894 106.766L254.135 112.795C253.701 112.795 253.267 112.685 252.834 112.685Z" fill="#C5DBFC"/>
<path d="M302.076 64.2343L296.11 65.0016C296.11 64.6728 296.002 64.2343 295.893 63.9055L301.859 62.9189C301.968 63.3574 301.968 63.7959 302.076 64.2343ZM301.317 60.3978L295.46 61.7132C295.351 61.3843 295.243 60.9459 295.243 60.617L301.1 59.0824C301.208 59.5209 301.317 59.9593 301.317 60.3978ZM300.341 56.5612L294.592 58.4247C294.483 58.0959 294.375 57.767 294.266 57.3286L299.907 55.2459C300.015 55.7939 300.232 56.1228 300.341 56.5612ZM298.931 52.9439L293.399 55.3555C293.29 55.0266 293.073 54.6978 292.965 54.3689L298.388 51.7382C298.605 52.067 298.714 52.5055 298.931 52.9439ZM297.195 49.3266L291.88 52.2863C291.663 51.9574 291.555 51.6286 291.338 51.2997L296.544 48.2305C296.761 48.5593 296.978 48.9978 297.195 49.3266ZM295.243 46.0382L290.253 49.4362C290.036 49.1074 289.819 48.7786 289.602 48.5593L294.483 45.0516C294.7 45.2709 294.917 45.5997 295.243 46.0382ZM292.856 42.8593L288.192 46.6959C287.975 46.367 287.759 46.1478 287.433 45.8189L291.989 41.8728C292.314 42.2016 292.639 42.5305 292.856 42.8593ZM290.362 39.8997L286.023 44.1747C285.806 43.9555 285.481 43.6266 285.264 43.4074L289.386 39.0228C289.711 39.242 290.036 39.5709 290.362 39.8997ZM287.433 37.269L283.528 41.8728C283.203 41.6536 282.986 41.4343 282.661 41.1055L286.457 36.392C286.782 36.7209 287.108 36.9401 287.433 37.269ZM284.396 34.8574L280.925 39.7901C280.6 39.5709 280.274 39.3516 280.057 39.1324L283.42 34.0901C283.745 34.3093 284.071 34.5286 284.396 34.8574ZM281.142 32.6651L278.105 37.9266C277.78 37.7074 277.454 37.5978 277.129 37.3786L279.949 32.0074C280.383 32.2266 280.817 32.4459 281.142 32.6651ZM277.671 30.9113L275.176 36.392C274.851 36.2824 274.526 36.0632 274.2 35.9536L276.587 30.3632C276.912 30.4728 277.346 30.692 277.671 30.9113ZM274.092 29.3766L272.031 35.0766C271.706 34.967 271.38 34.8574 270.946 34.7478L272.79 28.9382C273.333 29.0478 273.766 29.267 274.092 29.3766ZM270.404 28.1709L268.886 34.0901C268.56 33.9805 268.126 33.8709 267.801 33.8709L269.102 27.9516C269.536 28.0613 269.97 28.0613 270.404 28.1709ZM266.608 27.4036L265.632 33.4324C265.306 33.3228 264.872 33.3228 264.547 33.3228L265.306 27.2939C265.74 27.2939 266.174 27.294 266.608 27.4036Z" fill="#C5DBFC"/>
<path d="M173.219 304.62C248.459 304.62 309.452 242.98 309.452 166.944C309.452 90.9066 248.459 29.2666 173.219 29.2666C97.9799 29.2666 36.9863 90.9066 36.9863 166.944C36.9863 242.98 97.9799 304.62 173.219 304.62Z" fill="#F39E0C"/>
<path d="M112.262 327.422H203.264L222.137 308.349H489.288" stroke="#01A157" stroke-miterlimit="10"/>
<path d="M282.662 327.421L293.075 316.898H287.001L276.588 327.421H282.662Z" fill="#C5DBFC"/>
<path d="M294.485 327.421L304.898 316.898H298.824L288.411 327.421H294.485Z" fill="#C5DBFC"/>
<path d="M306.307 327.421L316.72 316.898H310.646L300.233 327.421H306.307Z" fill="#C5DBFC"/>
<path d="M318.022 327.421L328.435 316.898H322.469L312.057 327.421H318.022Z" fill="#C5DBFC"/>
<path d="M329.845 327.421L340.257 316.898H334.292L323.879 327.421H329.845Z" fill="#C5DBFC"/>
<path d="M341.668 327.421L352.08 316.898H346.115L335.702 327.421H341.668Z" fill="#C5DBFC"/>
<path d="M384.945 327.421L395.358 316.898H389.284L378.871 327.421H384.945Z" fill="#C5DBFC"/>
<path d="M396.767 327.421L407.18 316.898H401.106L390.693 327.421H396.767Z" fill="#C5DBFC"/>
<path d="M247.844 323.804C249.342 323.804 250.556 322.577 250.556 321.064C250.556 319.55 249.342 318.323 247.844 318.323C246.347 318.323 245.133 319.55 245.133 321.064C245.133 322.577 246.347 323.804 247.844 323.804Z" fill="#01A157"/>
<path d="M489.289 311.089C490.786 311.089 492 309.862 492 308.349C492 306.835 490.786 305.608 489.289 305.608C487.791 305.608 486.577 306.835 486.577 308.349C486.577 309.862 487.791 311.089 489.289 311.089Z" fill="#01A157"/>
<path d="M276.588 342.001C278.085 342.001 279.299 340.774 279.299 339.261C279.299 337.747 278.085 336.521 276.588 336.521C275.09 336.521 273.876 337.747 273.876 339.261C273.876 340.774 275.09 342.001 276.588 342.001Z" fill="#01A157"/>
<path d="M247.844 321.063H190.574L184.066 327.64" stroke="#01A157" stroke-miterlimit="10"/>
<path d="M167.146 327.422L179.077 315.255H222.463L246.217 339.261H276.587" stroke="#01A157" stroke-miterlimit="10"/>
<path d="M182.222 19.0731H91.2196L72.3466 0H0" stroke="#F39E0C" stroke-miterlimit="10"/>
<path d="M173.111 14.4685L166.712 7.8916H170.4L176.908 14.4685H173.111Z" fill="#C5DBFC"/>
<path d="M165.845 14.4685L159.445 7.8916H163.133L169.533 14.4685H165.845Z" fill="#C5DBFC"/>
<path d="M158.577 14.4685L152.178 7.8916H155.866L162.265 14.4685H158.577Z" fill="#C5DBFC"/>
<path d="M151.311 14.4685L144.911 7.8916H148.599L154.998 14.4685H151.311Z" fill="#C5DBFC"/>
<path d="M144.043 14.4685L137.535 7.8916H141.331L147.731 14.4685H144.043Z" fill="#C5DBFC"/>
<path d="M136.667 14.4685L130.268 7.8916H133.955L140.463 14.4685H136.667Z" fill="#C5DBFC"/>
<path d="M46.6404 15.5657C48.138 15.5657 49.352 14.3388 49.352 12.8253C49.352 11.3119 48.138 10.085 46.6404 10.085C45.1428 10.085 43.9287 11.3119 43.9287 12.8253C43.9287 14.3388 45.1428 15.5657 46.6404 15.5657Z" fill="#F39E0C"/>
<path d="M17.8962 33.761C19.3938 33.761 20.6079 32.5341 20.6079 31.0207C20.6079 29.5072 19.3938 28.2803 17.8962 28.2803C16.3986 28.2803 15.1846 29.5072 15.1846 31.0207C15.1846 32.5341 16.3986 33.761 17.8962 33.761Z" fill="#F39E0C"/>
<path d="M46.6406 12.8252H104.019L110.418 19.2925" stroke="#F39E0C" stroke-miterlimit="10"/>
<path d="M127.447 19.0733L115.407 7.01562H72.0209L48.2669 31.0214H17.8965" stroke="#F39E0C" stroke-miterlimit="10"/>
<path d="M173.219 298.482C245.104 298.482 303.378 239.59 303.378 166.944C303.378 94.2971 245.104 35.4053 173.219 35.4053C101.335 35.4053 43.0605 94.2971 43.0605 166.944C43.0605 239.59 101.335 298.482 173.219 298.482Z" fill="#ABC4E5"/>
<path d="M173.22 272.394C230.848 272.394 277.564 225.183 277.564 166.944C277.564 108.706 230.848 61.4941 173.22 61.4941C115.592 61.4941 68.876 108.706 68.876 166.944C68.876 225.183 115.592 272.394 173.22 272.394Z" fill="#F39E0C"/>
<path d="M173.22 240.824C213.595 240.824 246.326 207.746 246.326 166.943C246.326 126.14 213.595 93.0625 173.22 93.0625C132.845 93.0625 100.114 126.14 100.114 166.943C100.114 207.746 132.845 240.824 173.22 240.824Z" fill="#1982BC"/>
<path d="M150.225 242.468V224.711H196.214V178.234C196.865 178.343 197.624 178.562 198.384 178.672C193.069 177.466 189.381 176.918 189.056 176.809C189.273 176.809 190.032 177.028 191.333 177.247C191.876 179.001 192.093 180.755 192.093 182.618C192.093 193.141 183.632 201.691 173.22 201.691C162.807 201.691 154.347 193.141 154.347 182.618C154.347 180.755 154.672 178.891 155.106 177.247C156.408 177.028 157.167 176.918 157.384 176.809C157.058 176.809 153.37 177.466 148.056 178.672C148.815 178.453 149.466 178.343 150.225 178.234V296.509C157.709 297.824 165.41 298.591 173.22 298.591C181.029 298.591 188.73 297.934 196.214 296.509V242.468H150.225Z" fill="#04457C"/>
<path d="M236.455 192.702C226.15 186.016 211.291 181.741 200.986 179.22V295.522C209.121 293.768 217.039 291.137 224.632 287.849V260.554L229.404 285.656C231.574 284.56 233.743 283.464 235.804 282.368L251.423 225.368C247.084 209.474 241.986 196.32 236.455 192.702Z" fill="#04457C"/>
<path d="M198.601 178.672C199.36 178.891 200.119 179.001 200.878 179.22C200.119 179.11 199.36 178.891 198.601 178.672Z" fill="#04457C"/>
<path d="M145.452 179.22C146.211 179.001 146.971 178.891 147.73 178.672C147.079 178.891 146.32 179.11 145.452 179.22Z" fill="#04457C"/>
<path d="M109.984 192.702C106.079 195.224 102.391 202.458 99.1372 212.104L99.2456 211.995C99.3541 211.885 99.571 211.776 99.6795 211.666C99.6795 211.666 99.6795 211.666 99.788 211.666C99.8964 211.556 100.005 211.556 100.222 211.447H100.33C100.439 211.447 100.656 211.337 100.764 211.337C100.873 211.337 101.09 211.337 101.198 211.337H101.306C101.415 211.337 101.632 211.447 101.74 211.556C102.066 211.775 102.283 211.995 102.5 212.324C103.042 213.2 103.259 214.516 103.15 216.27C103.15 217.256 103.042 218.352 102.825 219.558C102.608 221.202 102.283 222.847 101.849 224.6C101.632 225.477 101.415 226.354 101.198 227.231C99.3541 234.247 96.8594 240.933 96.8594 240.933L114.214 284.122C115.19 284.56 116.058 285.108 117.034 285.547L121.806 260.445V287.739C129.291 291.027 137.209 293.549 145.452 295.412V179.22C135.148 181.741 120.288 186.125 109.984 192.702Z" fill="#04457C"/>
<path d="M117.143 285.657C118.77 286.424 120.288 287.191 121.915 287.849V260.555L117.143 285.657Z" fill="#023659"/>
<path d="M224.523 287.849C226.15 287.191 227.777 286.424 229.296 285.657L224.523 260.555V287.849Z" fill="#023659"/>
<path d="M196.214 224.711H150.225V242.469H196.214V224.711Z" fill="#0E65A0"/>
<path d="M154.347 182.618C154.347 193.141 162.807 201.691 173.22 201.691C183.632 201.691 192.093 193.141 192.093 182.618C192.093 180.755 191.767 178.891 191.333 177.247C190.032 177.028 189.273 176.918 189.056 176.809V180.426C189.056 182.289 188.73 184.153 188.08 185.797C185.91 191.936 180.053 196.32 173.328 196.32C164.651 196.32 157.601 189.195 157.601 180.426V176.809C157.384 176.809 156.624 177.028 155.323 177.247C154.564 178.891 154.347 180.755 154.347 182.618Z" fill="#0E65A0"/>
<path d="M173.219 196.321C180.052 196.321 185.801 191.936 187.97 185.798C187.97 185.798 187.97 185.907 187.862 185.907C187.645 186.455 187.428 187.003 187.211 187.442C164.975 191.498 157.383 176.7 157.383 176.7V180.317C157.491 189.196 164.542 196.321 173.219 196.321Z" fill="#B07458"/>
<path d="M188.838 182.618C188.73 183.057 188.73 183.495 188.621 184.043C188.621 184.153 188.513 184.262 188.513 184.372C188.404 184.81 188.296 185.358 188.079 185.797C188.73 184.153 189.055 182.289 189.055 180.426C189.055 181.083 189.055 181.632 188.947 182.18C188.838 182.289 188.838 182.508 188.838 182.618Z" fill="#FFB1A4"/>
<path d="M179.835 178.234C179.835 178.234 176.581 179.33 173.544 179.33C170.507 179.33 167.253 178.234 167.253 178.234C163.348 176.48 160.094 174.398 157.383 172.096V176.7C157.383 176.7 164.975 191.498 187.211 187.442C187.428 186.894 187.645 186.455 187.862 185.907C187.862 185.907 187.862 185.798 187.97 185.798C188.187 185.359 188.296 184.811 188.404 184.373C188.404 184.263 188.512 184.153 188.512 184.044C188.621 183.605 188.729 183.167 188.729 182.619C188.729 182.509 188.729 182.29 188.838 182.18C188.946 181.632 188.946 180.975 188.946 180.426V176.809V172.753C186.452 174.836 183.415 176.7 179.835 178.234Z" fill="#A56341"/>
<path d="M157.709 111.369C155.539 110.492 153.695 109.505 152.177 108.409C152.068 110.601 151.418 112.684 150.55 114.657H157.6V113.561V111.369H157.709Z" fill="#B07458"/>
<path d="M189.706 112.246V113.671V114.767H196.431C195.889 113.342 195.346 111.917 195.129 110.272C193.394 111.04 191.658 111.697 189.706 112.246Z" fill="#B07458"/>
<path d="M167.253 178.234C167.253 178.234 170.507 179.33 173.544 179.33C176.581 179.33 179.835 178.234 179.835 178.234C183.415 176.699 186.452 174.726 188.946 172.643C197.949 165.409 201.203 155.653 202.505 149.186C202.396 149.186 202.288 149.186 202.179 149.186H172.134C172.134 149.295 172.134 149.295 172.134 149.405C172.46 151.159 178.968 153.241 176.039 153.241C173.327 153.241 166.819 152.693 168.663 149.295H144.692C145.886 155.543 149.139 164.861 157.491 172.095C160.095 174.507 163.348 176.589 167.253 178.234ZM164.542 157.955C166.928 158.284 170.182 158.612 173.653 158.612C177.015 158.612 180.269 158.284 182.764 157.955C185.259 157.626 186.669 157.297 186.669 157.297C184.499 169.464 173.653 169.464 173.653 169.464C173.653 169.464 162.806 169.464 160.637 157.297C160.528 157.297 162.047 157.626 164.542 157.955Z" fill="#B07458"/>
<path d="M176.039 153.352C178.967 153.461 172.459 151.269 172.134 149.515C172.134 149.515 172.134 149.406 172.134 149.296H168.555C166.819 152.804 173.219 153.242 176.039 153.352Z" fill="#A66442"/>
<path d="M195.13 110.272C195.455 111.806 195.889 113.341 196.431 114.766H202.18C203.482 114.766 204.458 115.753 204.458 117.068V118.493H205H209.881C217.691 103.476 214.328 95.1449 210.424 90.9795C211.508 97.118 205.976 105.449 195.13 110.272Z" fill="#022E4C"/>
<path d="M141.873 118.494V117.069C141.873 115.753 142.849 114.767 144.15 114.767H150.658C151.526 112.794 152.068 110.711 152.285 108.519C153.804 109.505 155.539 110.492 157.817 111.478V110.272C157.817 109.615 158.359 109.176 158.902 109.176H166.277V74.6475C153.478 76.7302 142.849 82.8686 141.981 92.4052C141.981 92.4052 125.494 96.7898 137.209 118.603H141.439H141.873V118.494Z" fill="#022E4C"/>
<path d="M181.245 109.067H188.621C189.272 109.067 189.706 109.615 189.706 110.163V112.136C191.658 111.588 193.393 110.93 195.02 110.163C205.867 105.34 211.399 97.009 210.314 90.8705C210.206 90.4321 210.206 90.1032 209.989 89.7744C206.626 79.909 194.37 74.757 181.137 73.7705V109.067H181.245Z" fill="#022E4C"/>
<path d="M129.4 122.659C127.556 122.659 126.037 124.194 126.037 126.057V138.115C126.037 139.978 127.556 141.513 129.4 141.513H131.352V122.769H129.4V122.659Z" fill="white"/>
<path d="M139.27 143.485V120.576C139.27 119.37 140.246 118.493 141.33 118.493H137.1H133.412C132.219 118.493 131.352 119.48 131.352 120.576V122.659V141.403V143.485C131.352 144.691 132.328 145.568 133.412 145.568H141.33C140.137 145.568 139.27 144.691 139.27 143.485Z" fill="#04457C"/>
<path d="M141.873 118.493H141.33C140.137 118.493 139.27 119.48 139.27 120.576V143.485C139.27 144.691 140.246 145.568 141.33 145.568H141.873V118.493Z" fill="#00385E"/>
<path d="M217.039 141.403C218.883 141.403 220.402 139.868 220.402 138.005V125.947C220.402 124.083 218.883 122.549 217.039 122.549H215.087V141.293H217.039V141.403Z" fill="white"/>
<path d="M207.168 120.576V143.485C207.168 144.691 206.192 145.568 205.107 145.568H213.025C214.219 145.568 215.086 144.582 215.086 143.485V141.403V122.659V120.576C215.086 119.37 214.11 118.493 213.025 118.493H209.988H205.107C206.192 118.493 207.168 119.48 207.168 120.576Z" fill="#04457C"/>
<path d="M207.17 143.485V120.576C207.17 119.37 206.193 118.493 205.109 118.493H204.566V145.568H205.109C206.193 145.568 207.17 144.691 207.17 143.485Z" fill="#00385E"/>
<path d="M179.185 109.067H181.245V73.8801V73.5512C181.245 72.8935 180.703 72.4551 180.161 72.4551H179.293V109.067H179.185Z" fill="#1982BC"/>
<path d="M166.169 109.067H168.23V72.4551H167.362C166.711 72.4551 166.277 73.0032 166.277 73.5512V74.5378V109.067H166.169Z" fill="#1982BC"/>
<path d="M179.186 72.4551H168.23V109.067H179.186V72.4551Z" fill="#04457C"/>
<path d="M158.794 112.465H188.513C189.164 112.465 189.598 113.013 189.598 113.561V112.246V110.273C189.598 109.615 189.056 109.177 188.513 109.177H181.138H179.077H168.122H166.061H158.794C158.143 109.177 157.709 109.725 157.709 110.273V111.479V113.671C157.709 113.013 158.251 112.465 158.794 112.465Z" fill="#04457C"/>
<path d="M188.622 112.465H158.794C158.143 112.465 157.709 113.013 157.709 113.561V114.657H189.706V113.561C189.706 113.013 189.272 112.465 188.622 112.465Z" fill="#00385E"/>
<path d="M172.134 149.405H202.179C202.287 149.405 202.396 149.405 202.504 149.405C203.589 149.295 204.565 148.309 204.565 147.103V145.678V118.603V117.178C204.565 115.863 203.589 114.876 202.287 114.876H196.539H189.814H157.708H150.658H144.15C142.848 114.876 141.872 115.863 141.872 117.178V118.603V145.678V147.103C141.872 148.418 142.848 149.405 144.15 149.405H144.584H168.555H172.134ZM144.367 143.924V120.138C144.367 118.713 145.56 117.507 146.97 117.507H199.359C200.769 117.507 201.962 118.713 201.962 120.138V143.924C201.962 145.349 200.769 146.555 199.359 146.555H146.97C145.56 146.555 144.367 145.349 144.367 143.924Z" fill="#1982BC"/>
<path d="M199.359 146.555C200.769 146.555 201.962 145.349 201.962 143.924V120.138C201.962 118.713 200.769 117.507 199.359 117.507H146.97C145.56 117.507 144.367 118.713 144.367 120.138V143.924C144.367 145.349 145.56 146.555 146.97 146.555H199.359ZM198.058 142.828H190.574V140.745H198.058V142.828ZM198.058 138.991H190.574V136.909H198.058V138.991ZM192.201 119.041L180.92 145.02H177.666L188.947 119.041H192.201ZM150.441 145.02L161.722 119.041H168.447L157.166 145.02H150.441ZM160.42 145.02L171.701 119.041H174.955L163.674 145.02H160.42Z" fill="#04457C"/>
<path d="M174.955 119.041H171.701L160.421 145.02H163.675L174.955 119.041Z" fill="white"/>
<path d="M177.666 145.02H180.92L192.2 119.041H188.946L177.666 145.02Z" fill="white"/>
<path d="M168.447 119.041H161.722L150.441 145.02H157.166L168.447 119.041Z" fill="white"/>
<path d="M198.166 140.746H190.682V142.829H198.166V140.746Z" fill="#0D639E"/>
<path d="M198.166 136.909H190.682V138.992H198.166V136.909Z" fill="#0D639E"/>
<path d="M173.545 169.465C173.545 169.465 169.749 169.465 166.278 166.944C169.857 164.532 173.545 164.423 173.545 164.423C173.545 164.423 177.341 164.423 180.812 166.944C177.341 169.465 173.545 169.465 173.545 169.465C173.545 169.465 184.392 169.465 186.561 157.298C186.344 158.613 186.019 159.709 185.585 160.696C183.632 161.025 178.752 161.792 173.545 161.792C168.339 161.792 163.458 161.025 161.505 160.696C161.072 159.709 160.746 158.504 160.529 157.298C162.699 169.465 173.545 169.465 173.545 169.465Z" fill="#9B2727"/>
<path d="M173.545 161.9C178.752 161.9 183.632 161.133 185.585 160.804C186.019 159.818 186.344 158.612 186.561 157.406C186.561 157.406 185.043 157.735 182.656 158.064C180.27 158.393 177.016 158.722 173.545 158.722C170.183 158.722 166.929 158.393 164.434 158.064C162.048 157.735 160.529 157.406 160.529 157.406C160.746 158.722 161.072 159.818 161.505 160.804C163.458 161.133 168.339 161.9 173.545 161.9Z" fill="white"/>
<path d="M180.812 166.943C177.232 164.531 173.545 164.422 173.545 164.422C173.545 164.422 169.748 164.422 166.277 166.943C169.857 169.355 173.545 169.464 173.545 169.464C173.545 169.464 177.341 169.464 180.812 166.943Z" fill="#F7534F"/>
<path d="M148.055 178.672C147.947 178.672 147.838 178.672 147.73 178.781C146.971 179.001 146.211 179.11 145.452 179.33V295.631C146.971 295.96 148.598 296.289 150.225 296.618V178.233C149.574 178.343 148.815 178.453 148.055 178.672Z" fill="#0E65A0"/>
<path d="M200.878 179.221C200.119 179.002 199.359 178.892 198.6 178.673C198.492 178.673 198.383 178.673 198.275 178.563C197.516 178.344 196.865 178.235 196.105 178.125V224.602V242.36V296.4C197.732 296.071 199.251 295.742 200.878 295.413V179.221Z" fill="#0E65A0"/>
<path d="M266.066 175.274C266.066 174.287 265.957 173.191 265.957 171.985C265.957 173.082 266.066 174.287 266.066 175.274Z" fill="#FFB1A4"/>
<path d="M250.881 174.507C250.989 174.507 251.206 174.616 251.315 174.616C251.098 174.616 250.989 174.616 250.881 174.507Z" fill="#FFB1A4"/>
<path d="M251.966 175.055C252.074 175.164 252.183 175.274 252.4 175.384C252.183 175.164 252.074 175.055 251.966 175.055Z" fill="#FFB1A4"/>
<path d="M251.315 174.726C251.424 174.835 251.641 174.835 251.749 174.945C251.641 174.835 251.424 174.726 251.315 174.726Z" fill="#FFB1A4"/>
<path d="M254.352 177.686C254.46 177.905 254.677 178.124 254.785 178.234C254.677 178.014 254.568 177.795 254.352 177.686Z" fill="#FFB1A4"/>
<path d="M266.066 176.042C266.066 176.152 266.066 176.261 266.066 176.48C266.176 176.261 266.066 176.152 266.066 176.042Z" fill="#FFB1A4"/>
<path d="M253.918 177.028C254.026 177.138 254.135 177.357 254.243 177.467C254.243 177.357 254.026 177.248 253.918 177.028Z" fill="#FFB1A4"/>
<path d="M253.376 176.371C253.484 176.59 253.701 176.7 253.81 176.919C253.701 176.7 253.593 176.59 253.376 176.371Z" fill="#FFB1A4"/>
<path d="M249.253 174.836C249.361 174.727 249.578 174.617 249.687 174.617C249.47 174.617 249.361 174.727 249.253 174.836Z" fill="#FFB1A4"/>
<path d="M285.481 174.836C285.156 173.849 284.179 173.411 283.203 173.192C280.492 174.836 278.214 187.332 277.78 186.784C277.021 185.907 279.949 173.192 279.949 173.192C278.648 171.438 276.804 170.999 275.502 170.999C273.658 172.315 271.597 186.126 271.055 185.469C270.296 184.592 273.224 171.219 273.224 170.999C273.333 170.999 273.441 170.999 273.55 171.109C266.066 168.259 266.174 177.357 266.174 177.357C266.174 177.357 266.174 177.248 266.174 177.138C265.306 181.084 263.788 184.592 263.462 183.715C263.137 182.838 265.089 176.699 264.872 173.74C264.547 170.78 262.703 168.698 265.306 166.396C267.693 164.203 268.235 160.148 268.235 159.599C268.235 160.038 268.235 160.476 268.235 160.915C268.669 155.544 264.981 154.009 263.679 154.119C262.703 154.228 258.907 163.436 257.931 165.519C256.195 169.355 257.714 183.386 257.714 183.386C257.714 183.386 264.113 186.126 266.391 193.799C267.042 195.115 267.584 196.54 267.801 198.074C267.91 198.842 267.91 199.609 267.91 200.376C267.91 201.144 267.801 201.911 267.693 202.678C267.584 201.363 267.367 200.157 267.15 198.951C267.15 200.815 267.042 202.898 266.499 205.199L257.497 203.555L277.238 207.173C277.129 207.063 287.542 182.071 285.481 174.836ZM274.092 191.717C273.333 192.155 272.574 192.703 271.923 193.251C270.621 194.457 269.645 195.992 268.886 197.746C268.886 196.759 269.103 195.773 269.537 194.896C269.97 194.019 270.513 193.142 271.272 192.484C271.597 192.155 272.031 191.826 272.465 191.607C272.899 191.388 273.333 191.059 273.767 190.949C274.743 190.621 275.719 190.511 276.695 190.621C275.719 190.949 274.851 191.278 274.092 191.717Z" fill="#B07458"/>
<path d="M267.801 162.997C267.801 163.107 267.692 163.216 267.692 163.436C267.692 163.326 267.801 163.107 267.801 162.997Z" fill="#FFB1A4"/>
<path d="M252.941 194.128C250.772 188.976 248.386 182.728 248.169 178.782C248.494 182.728 250.772 188.867 252.941 194.128Z" fill="#FFB1A4"/>
<path d="M249.797 174.507C249.905 174.507 250.122 174.397 250.231 174.397C250.122 174.507 249.905 174.507 249.797 174.507Z" fill="#FFB1A4"/>
<path d="M266.175 168.04C266.175 168.15 266.175 168.369 266.066 168.478C266.175 168.259 266.175 168.15 266.175 168.04Z" fill="#FFB1A4"/>
<path d="M256.087 180.316C256.304 180.755 256.521 181.193 256.738 181.522C256.521 181.084 256.304 180.755 256.087 180.316Z" fill="#FFB1A4"/>
<path d="M268.127 161.354C268.127 161.573 268.019 161.792 268.019 162.011C268.019 161.792 268.019 161.573 268.127 161.354Z" fill="#FFB1A4"/>
<path d="M266.176 168.697C266.176 168.807 266.176 169.026 266.176 169.136C266.066 169.026 266.066 168.807 266.176 168.697Z" fill="#FFB1A4"/>
<path d="M266.5 166.725C266.392 166.834 266.392 167.053 266.392 167.163C266.392 167.053 266.5 166.834 266.5 166.725Z" fill="#FFB1A4"/>
<path d="M266.283 167.382C266.283 167.491 266.175 167.601 266.175 167.82C266.283 167.601 266.283 167.491 266.283 167.382Z" fill="#FFB1A4"/>
<path d="M255.653 179.659C255.762 179.878 255.87 179.988 255.979 180.207C255.87 180.098 255.762 179.878 255.653 179.659Z" fill="#FFB1A4"/>
<path d="M256.738 181.522C257.281 182.619 257.606 183.386 257.606 183.386C257.606 183.386 257.281 182.509 256.738 181.522Z" fill="#FFB1A4"/>
<path d="M257.28 203.445L251.314 225.368L235.695 282.368C249.254 274.805 261.402 264.94 271.489 253.101C274.851 229.424 277.021 207.063 277.021 207.063L257.28 203.445Z" fill="#B07458"/>
<path d="M266.282 205.09C266.824 202.788 266.933 200.705 266.933 198.841C266.933 198.622 266.824 198.403 266.716 198.184C266.391 196.759 265.848 195.443 265.089 194.128C264.438 192.813 263.57 191.716 262.486 190.62C261.51 189.524 260.425 188.538 259.232 187.661C262.052 188.757 264.547 190.949 266.065 193.69C266.065 193.799 266.174 193.799 266.174 193.909C263.896 186.236 257.496 183.495 257.496 183.495C257.496 183.495 257.171 182.728 256.629 181.632C256.412 181.303 256.195 180.865 255.978 180.426C255.978 180.426 255.978 180.426 255.978 180.316C255.869 180.097 255.761 179.988 255.652 179.768C255.652 179.768 255.652 179.768 255.652 179.659C255.544 179.44 255.435 179.22 255.327 179.001C255.327 179.001 255.327 178.891 255.219 178.891C255.11 178.672 255.002 178.563 254.893 178.343C254.893 178.343 254.893 178.234 254.785 178.234C254.676 178.015 254.568 177.795 254.351 177.686L254.242 177.576C254.134 177.466 254.025 177.247 253.917 177.138L253.808 177.028C253.7 176.809 253.483 176.699 253.375 176.48L253.266 176.37C253.158 176.261 253.049 176.151 252.941 175.932L252.832 175.822C252.724 175.713 252.507 175.493 252.398 175.384C252.398 175.384 252.29 175.384 252.29 175.274C252.182 175.165 252.073 175.055 251.856 174.945L251.748 174.836C251.639 174.726 251.422 174.616 251.314 174.616C251.314 174.616 251.314 174.616 251.205 174.616C251.097 174.507 250.88 174.507 250.771 174.507H250.663C250.555 174.507 250.338 174.507 250.229 174.507C250.121 174.507 249.904 174.507 249.795 174.616H249.687C249.578 174.726 249.361 174.726 249.253 174.836C249.144 174.945 248.928 175.055 248.819 175.165C248.602 175.384 248.494 175.713 248.385 176.151C248.277 176.37 248.277 176.699 248.168 177.028C248.06 177.576 248.06 178.124 248.168 178.672C248.494 182.728 250.771 188.866 252.941 194.018C255.11 199.17 257.279 203.336 257.279 203.336L266.282 205.09Z" fill="#B07458"/>
<path d="M273.226 170.999C273.226 171.218 270.189 184.591 271.056 185.468C271.599 186.016 273.659 172.314 275.503 170.999C275.395 170.999 275.286 170.999 275.178 170.999C275.178 170.999 275.178 170.999 275.07 170.999C274.961 170.999 274.853 170.999 274.744 170.999C274.744 170.999 274.744 170.999 274.636 170.999C274.527 170.999 274.419 170.999 274.31 170.999C274.202 170.999 274.093 170.999 274.093 170.999C273.985 170.999 273.985 170.999 273.876 170.999C273.768 170.999 273.768 170.999 273.768 170.999C273.659 170.999 273.659 170.999 273.659 170.999C273.443 170.999 273.334 170.999 273.226 170.999Z" fill="#A56341"/>
<path d="M277.781 186.784C278.215 187.332 280.384 174.836 283.204 173.192C281.902 172.973 280.492 173.082 280.167 173.192C279.95 173.192 277.021 185.798 277.781 186.784Z" fill="#A56341"/>
<path d="M268.127 159.489C268.019 160.037 267.585 164.093 265.199 166.285C262.596 168.587 264.548 170.67 264.765 173.63C265.09 176.589 263.138 182.728 263.355 183.605C263.68 184.482 265.199 180.974 266.066 177.028C266.066 177.028 266.066 176.918 266.066 176.808C266.066 176.699 266.066 176.699 266.066 176.589V176.48C266.066 176.37 266.066 176.26 266.066 176.041V175.932C266.066 175.712 266.066 175.603 266.066 175.383C266.066 175.383 266.066 175.383 266.066 175.274C266.066 174.287 265.958 173.191 265.958 171.985V171.876C265.958 171.657 265.958 171.437 265.958 171.218C265.958 171.108 265.958 171.108 265.958 170.999C265.958 170.78 265.958 170.56 265.958 170.341C265.958 170.232 265.958 170.122 265.958 170.122C265.958 169.903 265.958 169.793 265.958 169.574C265.958 169.464 265.958 169.355 265.958 169.355C265.958 169.135 265.958 169.026 265.958 168.916C265.958 168.807 265.958 168.697 265.958 168.697C265.958 168.587 265.958 168.368 266.066 168.258C266.066 168.149 266.066 168.149 266.066 168.039C266.066 167.93 266.066 167.82 266.175 167.601C266.175 167.491 266.175 167.491 266.175 167.382C266.175 167.162 266.283 167.053 266.283 166.943C266.5 166.395 266.717 165.847 266.934 165.299C266.934 165.189 267.043 165.08 267.043 164.97C267.151 164.532 267.368 164.093 267.476 163.655C267.476 163.545 267.585 163.326 267.585 163.216C267.693 162.887 267.693 162.558 267.802 162.23C267.802 162.01 267.91 161.791 267.91 161.572C267.91 161.353 267.91 161.133 268.019 160.914C268.236 160.366 268.236 159.928 268.127 159.489Z" fill="#A56341"/>
<path d="M259.342 187.551C260.535 188.428 261.62 189.414 262.596 190.51C263.572 191.607 264.44 192.812 265.199 194.018C265.958 195.333 266.501 196.649 266.826 198.074C266.934 198.293 266.934 198.512 267.043 198.732C267.368 199.937 267.477 201.143 267.585 202.458C267.694 201.691 267.802 200.924 267.802 200.157C267.802 199.389 267.802 198.622 267.694 197.855C267.477 196.32 266.934 194.895 266.284 193.58C266.284 193.47 266.175 193.47 266.175 193.36C264.548 190.839 262.162 188.647 259.342 187.551Z" fill="#A56341"/>
<path d="M273.768 190.949C273.334 191.059 272.9 191.388 272.466 191.607C272.032 191.936 271.598 192.155 271.273 192.484C270.514 193.141 269.971 194.018 269.538 194.895C269.104 195.772 268.887 196.759 268.887 197.745C269.754 195.991 270.731 194.457 271.924 193.251C272.575 192.593 273.225 192.155 274.093 191.716C274.852 191.278 275.72 190.949 276.588 190.62C275.72 190.511 274.744 190.62 273.768 190.949Z" fill="#A56341"/>
<path d="M95.5574 217.915C94.7981 219.669 94.3643 221.094 94.3643 221.094C94.3643 221.094 94.5812 220.327 95.015 219.23C95.232 218.792 95.3404 218.354 95.5574 217.915Z" fill="#FFB1A4"/>
<path d="M76.0342 210.789C76.1426 210.789 76.2511 210.789 76.3596 210.789C76.1426 210.68 76.0342 210.68 76.0342 210.789Z" fill="#FFB1A4"/>
<path d="M85.1468 215.175C85.1468 215.065 85.1468 214.955 85.1468 214.846C85.037 214.955 85.037 215.065 85.1468 215.175Z" fill="#FFB1A4"/>
<path d="M83.084 204.651C83.3009 204.98 83.4094 205.309 83.6263 205.638C83.7348 205.748 83.7348 205.857 83.8432 206.076C83.7348 205.967 83.7348 205.748 83.6263 205.638C83.4094 205.309 83.1925 204.98 83.084 204.651Z" fill="#FFB1A4"/>
<path d="M97.2939 214.298C97.4024 214.079 97.5109 213.969 97.6193 213.75C97.6193 213.86 97.5109 214.079 97.2939 214.298Z" fill="#FFB1A4"/>
<path d="M85.0363 214.078C84.9279 213.091 84.8194 211.995 84.7109 210.789C84.8194 211.885 84.9279 213.091 85.0363 214.078Z" fill="#FFB1A4"/>
<path d="M76.7939 210.681C76.9024 210.681 76.9024 210.681 76.9024 210.681C76.9024 210.79 76.9024 210.681 76.7939 210.681Z" fill="#FFB1A4"/>
<path d="M97.8359 213.64C97.9444 213.53 98.0529 213.311 98.1613 213.201C98.0529 213.311 97.9444 213.42 97.8359 213.64Z" fill="#FFB1A4"/>
<path d="M95.5576 217.805C95.6661 217.586 95.7745 217.367 95.7745 217.147C95.7745 217.476 95.6661 217.586 95.5576 217.805Z" fill="#FFB1A4"/>
<path d="M82.4338 203.446C82.3253 203.227 82.2169 202.898 82.1084 202.679C82.2169 203.008 82.3253 203.227 82.4338 203.446Z" fill="#FFB1A4"/>
<path d="M82.9758 204.432C82.8673 204.213 82.7589 203.994 82.6504 203.774C82.6504 203.994 82.8673 204.213 82.9758 204.432Z" fill="#FFB1A4"/>
<path d="M98.2695 212.981C98.378 212.872 98.4865 212.653 98.7034 212.543C98.4865 212.762 98.378 212.872 98.2695 212.981Z" fill="#FFB1A4"/>
<path d="M98.7041 212.544C98.8126 212.434 98.921 212.324 99.0295 212.215C98.921 212.324 98.8126 212.324 98.7041 212.544Z" fill="#FFB1A4"/>
<path d="M84.4942 208.817C84.4942 208.597 84.3857 208.488 84.3857 208.269C84.3857 208.488 84.3857 208.597 84.4942 208.817Z" fill="#FFB1A4"/>
<path d="M83.9522 206.624C83.9522 206.514 83.8438 206.405 83.8438 206.295C83.9522 206.405 83.9522 206.514 83.9522 206.624Z" fill="#FFB1A4"/>
<path d="M84.2774 208.049C84.2774 207.83 84.1689 207.72 84.1689 207.61C84.2774 207.72 84.2774 207.83 84.2774 208.049Z" fill="#FFB1A4"/>
<path d="M99.6797 211.776C99.7882 211.666 99.8966 211.666 100.114 211.557C99.8966 211.557 99.7882 211.666 99.6797 211.776Z" fill="#FFB1A4"/>
<path d="M99.1367 212.105C99.2452 211.996 99.4621 211.886 99.5706 211.776C99.4621 211.886 99.3537 211.996 99.1367 212.105Z" fill="#FFB1A4"/>
<path d="M100.222 211.557C100.33 211.557 100.547 211.447 100.656 211.447C100.439 211.447 100.33 211.447 100.222 211.557Z" fill="#FFB1A4"/>
<path d="M101.198 211.447C101.307 211.447 101.524 211.557 101.632 211.667C101.524 211.557 101.415 211.557 101.198 211.447Z" fill="#FFB1A4"/>
<path d="M102.933 219.669C102.716 221.313 102.391 222.957 101.957 224.711C102.282 222.957 102.716 221.313 102.933 219.669Z" fill="#FFB1A4"/>
<path d="M96.8596 241.043C96.8596 241.043 99.3543 234.357 101.198 227.342C99.4628 234.357 96.8596 241.043 96.8596 241.043L88.1823 243.674C87.4231 241.482 86.9892 239.399 86.8807 237.536C86.7723 238.742 86.7723 240.057 86.7723 241.372C86.5553 240.605 86.3384 239.947 86.2299 239.18C86.1215 238.413 86.013 237.645 86.1215 236.878C86.1215 235.344 86.5554 233.919 87.0977 232.494C88.5077 224.601 94.4733 221.203 94.4733 221.203C94.4733 221.203 94.3649 207.063 92.1956 203.445C91.0024 201.472 86.2299 192.813 85.1453 192.813C83.5183 192.703 79.2882 195.443 82.1083 202.678C81.4575 201.143 81.2405 199.828 81.1321 198.732C81.2405 199.28 82.2167 203.336 84.8199 205.199C87.64 207.172 86.013 209.474 86.013 212.434C86.1215 215.393 88.7247 221.313 88.5077 222.19C88.2908 223.067 86.4469 219.778 85.0368 215.942C85.0368 216.051 85.0368 216.161 85.0368 216.161C85.0368 216.161 84.1691 207.172 77.0104 210.79C77.1188 210.79 77.2273 210.68 77.3358 210.68C77.4442 210.899 81.8913 223.834 81.1321 224.82C80.6982 225.478 77.0104 211.995 75.058 210.899C75.1665 210.899 75.2749 210.899 75.3834 210.899C73.9733 211.009 71.9125 211.667 70.8278 213.749C70.8278 213.749 75.1665 226.026 74.5157 227.013C74.1903 227.561 70.5024 215.503 67.5739 214.188C68.8754 213.749 70.2855 213.749 70.6109 213.749C69.9601 213.749 65.8384 213.749 65.4045 216.051C64.103 223.505 77.3358 247.182 77.3358 247.182L96.8596 241.043ZM81.2405 232.603C80.5897 232.055 79.8305 231.617 78.9628 231.288C78.095 230.959 77.2273 230.74 76.3596 230.52C77.3358 230.301 78.312 230.301 79.2881 230.52C79.8305 230.63 80.2643 230.849 80.6982 230.959C81.1321 231.178 81.5659 231.397 81.9998 231.726C82.759 232.384 83.5183 233.042 83.9522 233.918C84.4945 234.795 84.8199 235.672 84.9284 236.659C83.7352 235.124 82.6506 233.699 81.2405 232.603Z" fill="#B07458"/>
<path d="M103.259 216.38C103.259 217.366 103.151 218.463 102.934 219.668C103.042 218.463 103.151 217.366 103.259 216.38Z" fill="#FFB1A4"/>
<path d="M77.6611 246.963C77.6611 246.963 78.6373 251.786 80.3728 259.24C90.2432 269.324 101.632 277.874 114.214 284.342L96.8596 241.153L77.6611 246.963Z" fill="#B07458"/>
<path d="M86.9884 232.384C86.9884 232.274 86.9884 232.274 87.0969 232.165C88.29 229.315 90.4593 226.794 93.171 225.369C92.0863 226.355 91.1101 227.561 90.2424 228.767C89.3747 229.972 88.6154 231.288 88.0731 232.603C87.5307 233.919 87.0969 235.344 86.8799 236.769C86.8799 236.988 86.7715 237.207 86.7715 237.426C86.9884 239.29 87.3138 241.372 88.0731 243.565L96.7503 240.934C96.7503 240.934 99.245 234.248 101.089 227.232C101.306 226.355 101.523 225.478 101.74 224.601C102.174 222.848 102.499 221.094 102.716 219.559C102.933 218.353 103.041 217.257 103.041 216.271C103.041 214.626 102.933 213.201 102.391 212.324C102.174 211.996 101.957 211.667 101.631 211.557C101.523 211.448 101.306 211.448 101.197 211.338H101.089C100.98 211.338 100.764 211.338 100.655 211.338C100.547 211.338 100.33 211.338 100.221 211.448H100.113C100.004 211.448 99.8958 211.557 99.6789 211.667C99.6789 211.667 99.6789 211.667 99.5704 211.667C99.462 211.776 99.245 211.886 99.1366 211.996L99.0281 212.105C98.9196 212.215 98.8112 212.324 98.7027 212.434C98.7027 212.434 98.7027 212.434 98.5942 212.544C98.4858 212.653 98.3773 212.873 98.1604 212.982L98.0519 213.092C97.9435 213.201 97.835 213.421 97.7265 213.53L97.6181 213.64C97.5096 213.859 97.4011 213.969 97.2927 214.188L97.1842 214.298C97.0757 214.407 96.9673 214.626 96.8588 214.846C96.8588 214.846 96.8588 214.955 96.7503 214.955C96.6419 215.174 96.5334 215.394 96.4249 215.613C96.4249 215.613 96.4249 215.723 96.3165 215.723C96.208 215.942 96.0995 216.051 95.9911 216.271C95.9911 216.271 95.9911 216.38 95.8826 216.38C95.7741 216.599 95.6657 216.819 95.5572 217.038C95.5572 217.038 95.5572 217.038 95.5572 217.148C95.4487 217.367 95.3403 217.586 95.3403 217.805C95.3403 217.805 95.3403 217.805 95.3403 217.915C95.1233 218.353 95.0149 218.792 94.7979 219.121C94.3641 220.217 94.1471 220.984 94.1471 220.984C94.1471 220.984 88.3985 224.492 86.9884 232.384Z" fill="#B07458"/>
<path d="M81.2409 224.711C81.8917 223.724 77.4446 210.79 77.4446 210.57C77.3362 210.57 77.2277 210.68 77.1192 210.68C77.1192 210.68 77.1192 210.68 77.0108 210.68H76.9023C76.7938 210.68 76.7938 210.68 76.6854 210.68C76.5769 210.68 76.5769 210.68 76.4684 210.68C76.36 210.68 76.2515 210.68 76.1431 210.68C76.1431 210.68 76.143 210.68 76.0346 210.68C75.9261 210.68 75.8177 210.68 75.7092 210.68C75.6007 210.68 75.4923 210.68 75.3838 210.68C77.1192 211.995 80.8071 225.368 81.2409 224.711Z" fill="#A56341"/>
<path d="M67.791 213.969C70.7196 215.284 74.299 227.451 74.7328 226.794C75.3836 225.807 71.045 213.53 71.045 213.53C71.045 213.53 71.045 213.53 70.9365 213.53C70.6111 213.53 69.0926 213.53 67.791 213.969Z" fill="#A56341"/>
<path d="M88.5075 222.08C88.7244 221.203 86.1213 215.393 86.0128 212.324C85.9043 209.364 87.6398 207.062 84.8197 205.089C82.2165 203.226 81.2403 199.17 81.1318 198.622C81.2403 199.718 81.4572 201.034 82.108 202.568C82.108 202.568 82.108 202.678 82.2165 202.678C82.325 202.897 82.4334 203.116 82.5419 203.445C82.5419 203.555 82.6504 203.555 82.6504 203.664C82.7588 203.884 82.8673 204.103 82.9757 204.322C82.9757 204.432 83.0842 204.541 83.0842 204.541C83.3011 204.87 83.4096 205.199 83.6265 205.528C83.735 205.637 83.735 205.747 83.8435 205.966C83.8435 205.966 83.8435 206.076 83.9519 206.076C83.9519 206.186 84.0604 206.295 84.0604 206.405C84.0604 206.514 84.0604 206.514 84.1689 206.624C84.1689 206.734 84.2773 206.953 84.2773 207.062C84.2773 207.172 84.2773 207.282 84.3858 207.282C84.3858 207.391 84.4943 207.611 84.4943 207.72C84.4943 207.83 84.4943 207.939 84.4943 207.939C84.4943 208.159 84.6027 208.268 84.6027 208.487C84.6027 208.597 84.6027 208.707 84.6027 208.707C84.6027 208.926 84.7112 209.145 84.7112 209.364C84.7112 209.474 84.7112 209.474 84.7112 209.584C84.7112 209.803 84.8197 210.022 84.8197 210.241V210.351C84.9281 211.557 85.0366 212.653 85.1451 213.639V213.749C85.1451 213.968 85.1451 214.078 85.1451 214.297V214.407C85.1451 214.516 85.1451 214.626 85.1451 214.736C85.1451 214.845 85.1451 214.845 85.1451 214.955C85.1451 215.064 85.1451 215.064 85.1451 215.174C85.1451 215.284 85.1451 215.393 85.1451 215.393C86.4467 219.668 88.399 222.957 88.5075 222.08Z" fill="#A56341"/>
<path d="M88.0736 232.603C88.6159 231.287 89.3751 229.972 90.2429 228.766C91.1106 227.56 92.0868 226.464 93.1714 225.368C90.4598 226.793 88.2905 229.205 87.0974 232.164C87.0974 232.274 87.0974 232.274 86.9889 232.384C86.4466 233.809 86.1212 235.234 86.0127 236.768C85.9042 237.535 86.0127 238.303 86.1212 239.07C86.2296 239.837 86.4466 240.605 86.6635 241.262C86.6635 239.947 86.6635 238.741 86.772 237.426C86.772 237.207 86.772 236.987 86.8804 236.768C87.0974 235.343 87.5312 234.028 88.0736 232.603Z" fill="#A56341"/>
<path d="M81.8912 231.727C81.4573 231.398 81.0235 231.179 80.5896 230.959C80.1557 230.74 79.7219 230.521 79.1795 230.521C78.2034 230.302 77.2272 230.302 76.251 230.521C77.2272 230.74 78.0949 230.959 78.8542 231.288C79.7219 231.617 80.4811 232.055 81.1319 232.604C82.542 233.7 83.6266 235.125 84.7113 236.659C84.6028 235.673 84.2774 234.796 83.7351 233.919C83.3012 233.152 82.6504 232.384 81.8912 231.727Z" fill="#A56341"/>
<path d="M227.669 184.044H316.611C318.672 184.044 320.408 182.29 320.408 180.207V133.73C320.408 131.647 318.672 129.894 316.611 129.894H227.669C225.608 129.894 223.873 131.647 223.873 133.73V180.207C223.873 182.29 225.608 184.044 227.669 184.044Z" fill="#ABC8AB" fill-opacity="0.47"/>
<path d="M31.3466 231.946H127.122C129.616 231.946 131.677 229.863 131.677 227.342V165.08C131.677 162.559 129.616 160.477 127.122 160.477H31.3466C28.8519 160.477 26.791 162.559 26.791 165.08V227.342C26.791 229.973 28.8519 231.946 31.3466 231.946Z" fill="#ABC8AB" fill-opacity="0.47"/>
<path d="M299.366 207.063H348.609C350.453 207.063 352.08 205.528 352.08 203.555V172.205C352.08 170.342 350.561 168.697 348.609 168.697H299.257C297.413 168.697 295.786 170.232 295.786 172.205V203.555C295.895 205.528 297.413 207.063 299.366 207.063Z" fill="#ABC8AB" fill-opacity="0.47"/>
<path d="M44.3636 111.15H119.747C121.7 111.15 123.327 109.505 123.327 107.532V58.5343C123.327 56.5612 121.7 54.917 119.747 54.917H44.3636C42.4112 54.917 40.7842 56.5612 40.7842 58.5343V107.532C40.7842 109.505 42.4112 111.15 44.3636 111.15Z" fill="#ABC8AB" fill-opacity="0.47"/>
<path d="M118.445 101.504H169.64C171.593 101.504 173.22 99.8598 173.22 97.8867V65.4406C173.22 63.4675 171.593 61.8232 169.64 61.8232H118.445C116.492 61.8232 114.865 63.4675 114.865 65.4406V97.9963C114.974 99.9694 116.492 101.504 118.445 101.504Z" fill="#ABC8AB" fill-opacity="0.47"/>
<path d="M112.479 249.703H163.675C165.627 249.703 167.254 248.059 167.254 246.086V213.64C167.254 211.667 165.627 210.022 163.675 210.022H112.479C110.526 210.022 108.899 211.667 108.899 213.64V246.086C108.899 248.059 110.526 249.703 112.479 249.703Z" fill="#ABC8AB" fill-opacity="0.47"/>
<path d="M330.06 276.888H276.587V281.272H330.06V276.888Z" fill="#C5DBFC"/>
<path d="M353.381 285.547H276.587V289.931H353.381V285.547Z" fill="#C5DBFC"/>
<path d="M353.381 294.097H276.587V298.481H353.381V294.097Z" fill="#C5DBFC"/>
<path d="M432.344 276.888H378.87V281.272H432.344V276.888Z" fill="#C5DBFC"/>
<path d="M455.664 285.547H378.87V289.931H455.664V285.547Z" fill="#C5DBFC"/>
<path d="M455.664 294.097H378.87V298.481H455.664V294.097Z" fill="#C5DBFC"/>
<path d="M58.8958 91.638C64.407 91.638 68.8747 87.1229 68.8747 81.5534C68.8747 75.9838 64.407 71.4688 58.8958 71.4688C53.3847 71.4688 48.917 75.9838 48.917 81.5534C48.917 87.1229 53.3847 91.638 58.8958 91.638Z" fill="#C5DBFC" fill-opacity="0.8"/>
<path d="M92.6292 72.5645H73.3223V76.1818H92.6292V72.5645Z" fill="#C5DBFC" fill-opacity="0.8"/>
<path d="M111.936 79.6895H73.3223V83.3068H111.936V79.6895Z" fill="#C5DBFC" fill-opacity="0.8"/>
<path d="M111.936 86.9238H73.3223V90.5411H111.936V86.9238Z" fill="#C5DBFC" fill-opacity="0.8"/>
<path d="M51.9551 296.399L64.5371 311.855L77.0106 327.421H51.9551H26.791L39.373 311.855L51.9551 296.399Z" fill="#ABC8AB" fill-opacity="0.37"/>
<path d="M81.0244 306.155L89.5932 316.788L98.2705 327.421H81.0244H63.6699L72.3472 316.788L81.0244 306.155Z" fill="#ABC8AB" fill-opacity="0.47"/>
<path d="M264.764 138.883L268.994 152.146H282.769L271.597 160.258L275.828 173.521L264.764 165.3L253.592 173.521L257.822 160.258L246.759 152.146H260.425L264.764 138.883Z" fill="#C5DBFC" fill-opacity="0.8"/>
<path d="M95.0157 183.058C91.4363 179.44 85.5792 179.44 81.8913 183.058L79.1797 185.798L76.4681 183.058C72.8887 179.44 67.0315 179.44 63.3437 183.058C59.7643 186.675 59.7643 192.594 63.3437 196.321L79.1797 212.325L95.0157 196.321C98.7035 192.594 98.7035 186.675 95.0157 183.058Z" fill="#C5DBFC" fill-opacity="0.8"/>
<path d="M173.219 298.483C245.104 298.483 303.378 239.591 303.378 166.945C303.378 94.298 245.104 35.4062 173.219 35.4062C101.335 35.4062 43.0605 94.298 43.0605 166.945C43.0605 239.591 101.335 298.483 173.219 298.483Z" stroke="#04457C" stroke-miterlimit="10"/>
</g>
<defs>
<clipPath id="clip0_111_1011">
<rect width="492" height="342" fill="white"/>
</clipPath>
</defs>
</svg>
