<svg width="72" height="72" viewBox="0 0 72 72" fill="none" xmlns="http://www.w3.org/2000/svg">
<path d="M36 61.668C35.53 61.668 35.06 61.591 34.59 61.437C34.12 61.283 33.688 61.033 33.294 60.687C31.16 58.725 28.996 56.54 26.802 54.132C24.61 51.726 22.62 49.233 20.832 46.653C19.044 44.073 17.576 41.44 16.428 38.754C15.28 36.068 14.708 33.446 14.712 30.888C14.712 24.542 16.778 19.308 20.91 15.186C25.044 11.062 30.074 9 36 9C41.926 9 46.956 11.062 51.09 15.186C55.222 19.308 57.288 24.542 57.288 30.888C57.288 33.446 56.716 36.059 55.572 38.727C54.428 41.393 52.97 44.025 51.198 46.623C49.428 49.223 47.447 51.717 45.255 54.105C43.063 56.493 40.898 58.668 38.76 60.63C38.378 60.976 37.944 61.236 37.458 61.41C36.97 61.582 36.483 61.668 35.997 61.668M36.009 35.193C37.343 35.193 38.483 34.717 39.429 33.765C40.373 32.815 40.845 31.672 40.845 30.336C40.845 29 40.369 27.86 39.417 26.916C38.465 25.972 37.322 25.5 35.988 25.5C34.654 25.5 33.514 25.976 32.568 26.928C31.622 27.88 31.15 29.023 31.152 30.357C31.154 31.691 31.629 32.831 32.577 33.777C33.525 34.723 34.669 35.195 36.009 35.193Z" fill="black"/>
</svg>
