<svg width="72" height="72" viewBox="0 0 84 84" fill="none" xmlns="http://www.w3.org/2000/svg">
<path d="M66.5 28.9448C64.078 28.9448 62.013 28.092 60.305 26.3863C58.597 24.6807 57.7453 22.6157 57.75 20.1913C57.7547 17.767 58.6063 15.7032 60.305 13.9998C62.0037 12.2965 64.0687 11.4448 66.5 11.4448C68.9313 11.4448 70.9963 12.2965 72.695 13.9998C74.3937 15.7032 75.2453 17.7682 75.25 20.1948C75.2547 22.6215 74.403 24.6853 72.695 26.3863C70.987 28.0873 68.922 28.939 66.5 28.9413M16.156 66.4998C14.5437 66.4998 13.1985 65.9608 12.1205 64.8828C11.0425 63.8048 10.5023 62.4585 10.5 60.8438V23.1558C10.5 21.5435 11.0402 20.1983 12.1205 19.1203C13.2008 18.0423 14.5448 17.5022 16.1525 17.4998H50.967C50.8667 18.0832 50.8048 18.6548 50.7815 19.2148C50.7605 19.7748 50.7768 20.3698 50.8305 20.9998C50.9238 22.7778 51.2925 24.4578 51.9365 26.0398C52.5758 27.6195 53.4322 29.044 54.5055 30.3133L42 38.4998L15.078 20.9998L14 24.0973L42 42.4023L57.099 32.5358C58.359 33.6045 59.7882 34.4398 61.3865 35.0418C62.9825 35.6415 64.687 35.9413 66.5 35.9413C67.6947 35.9413 68.8928 35.7955 70.0945 35.5038C71.2962 35.2122 72.4313 34.7758 73.5 34.1948V60.8508C73.5 62.4608 72.961 63.8048 71.883 64.8828C70.805 65.9608 69.4598 66.4998 67.8475 66.4998H16.156Z" fill="black"/>
</svg>
